#define _width 15
#define _height 15
static char _bits[] = {
 0x80,0x00,0x80,0x00,0xc0,0x00,0xc0,0x01,0xc0,0x01,0xe0,0x03,0xe0,0x03,0xf0,
 0x07,0xf0,0x07,0x38,0x0e,0x3c,0x0e,0x3c,0x0e,0x1e,0x3c,0x06,0x30,0x01,0x40 };
