#define _width 14
#define _height 15
static char _bits[] = {
 0x60,0x00,0x00,0x01,0x00,0x00,0x00,0x00,0xc0,0x00,0x02,0x00,0x0c,0x00,0x08,
 0x00,0x00,0x00,0x00,0x0c,0x00,0x02,0x80,0x01,0xe0,0x00,0x3e,0x00,0x00,0x00 };
